<svg xmlns="http://www.w3.org/2000/svg" width="83" height="82" fill="none"><rect width="81" height="81" x="1" y=".5" stroke="url(#a)" rx="40.5"/><rect width="81" height="81" x="1" y=".5" stroke="url(#b)" rx="40.5"/><rect width="61" height="61" x="11" y="10.5" stroke="url(#c)" rx="30.5"/><rect width="61" height="61" x="11" y="10.5" stroke="url(#d)" rx="30.5"/><path fill="#004FE1" d="M41.5 55c-7.731 0-14-6.269-14-14h14zM27.5 27c7.731 0 14 6.269 14 14h-14zM41.5 55c7.731 0 14-6.269 14-14h-14zM55.5 41c0-7.731-6.269-14-14-14v14z"/><defs><linearGradient id="a" x1="7.25" x2="86.25" y1="86.5" y2="-5.5" gradientUnits="userSpaceOnUse"><stop stop-color="#004FE1"/><stop offset=".324" stop-color="#004FE1" stop-opacity="0"/></linearGradient><linearGradient id="b" x1="82.25" x2="7.25" y1="-10.5" y2="82" gradientUnits="userSpaceOnUse"><stop stop-color="#004FE1"/><stop offset=".577" stop-color="#004FE1" stop-opacity="0"/></linearGradient><linearGradient id="c" x1="3.75" x2="72.25" y1="13.5" y2="72" gradientUnits="userSpaceOnUse"><stop stop-color="#004FE1"/><stop offset=".324" stop-color="#004FE1" stop-opacity="0"/></linearGradient><linearGradient id="d" x1="84.75" x2="12.75" y1="86" y2="35" gradientUnits="userSpaceOnUse"><stop stop-color="#004FE1"/><stop offset=".577" stop-color="#004FE1" stop-opacity="0"/></linearGradient></defs></svg>