<svg xmlns="http://www.w3.org/2000/svg" width="83" height="82" fill="none"><rect width="81" height="81" x="1" y=".5" stroke="url(#a)" rx="40.5"/><rect width="81" height="81" x="1" y=".5" stroke="url(#b)" rx="40.5"/><rect width="61" height="61" x="11" y="10.5" stroke="url(#c)" rx="30.5"/><rect width="61" height="61" x="11" y="10.5" stroke="url(#d)" rx="30.5"/><path fill="#004FE1" d="M26.625 36.281v12.157a4.25 4.25 0 0 0 4.25 4.25h21.25a4.25 4.25 0 0 0 4.25-4.25V36.28l-12.648 7.783a4.25 4.25 0 0 1-4.454 0z"/><path fill="#004FE1" d="M56.375 33.786v-.224a4.25 4.25 0 0 0-4.25-4.25h-21.25a4.25 4.25 0 0 0-4.25 4.25v.224l13.761 8.469c.683.42 1.545.42 2.228 0z"/><defs><linearGradient id="a" x1="7.25" x2="86.25" y1="86.5" y2="-5.5" gradientUnits="userSpaceOnUse"><stop stop-color="#004FE1"/><stop offset=".324" stop-color="#004FE1" stop-opacity="0"/></linearGradient><linearGradient id="b" x1="82.25" x2="7.25" y1="-10.5" y2="82" gradientUnits="userSpaceOnUse"><stop stop-color="#004FE1"/><stop offset=".577" stop-color="#004FE1" stop-opacity="0"/></linearGradient><linearGradient id="c" x1="3.75" x2="72.25" y1="13.5" y2="72" gradientUnits="userSpaceOnUse"><stop stop-color="#004FE1"/><stop offset=".324" stop-color="#004FE1" stop-opacity="0"/></linearGradient><linearGradient id="d" x1="84.75" x2="12.75" y1="86" y2="35" gradientUnits="userSpaceOnUse"><stop stop-color="#004FE1"/><stop offset=".577" stop-color="#004FE1" stop-opacity="0"/></linearGradient></defs></svg>