<svg xmlns="http://www.w3.org/2000/svg" width="32" height="34" fill="none"><path fill="#000" d="m17.988 16.489-.004-.75a.75.75 0 0 0-.666 1.088zm4.354 8.6.339.669a.75.75 0 0 0 .33-1.008zm-3.822 1.935-.669.339a.75.75 0 0 0 1.008.33zm-4.355-8.6.67-.339a.75.75 0 0 0-1.272-.108zm-4.281 5.77-.75.004a.75.75 0 0 0 1.352.443zm-.098-19.16.447-.602a.75.75 0 0 0-1.197.606zm3.847 2.855-.447.602a.75.75 0 0 0 .786.067zm0 0 .67-.339a.75.75 0 0 0-1.009-.33zm0 0-.669.339a.75.75 0 0 0 .222.263zm11.539 8.563.004.75a.75.75 0 0 0 .443-1.352zm-7.854.375 4.355 8.6 1.338-.677-4.354-8.6zm4.685 7.592-3.822 1.936.678 1.338 3.822-1.935zm-2.814 2.266-4.355-8.6-1.338.678 4.355 8.6zm-5.626-8.708-4.282 5.77 1.205.894 4.282-5.77zm-2.93 6.213-.097-19.16-1.5.008.098 19.16zM9.34 5.637l3.847 2.854.894-1.204-3.847-2.855zm4.633 2.921-.678-1.338zm-1.008-.33 1.338-.678zm.222.263 11.54 8.563.893-1.204L14.08 7.287zm11.982 7.211-7.184.037.007 1.5 7.185-.037z"/></svg>